<svg width="370" height="110" viewBox="0 0 370 110" fill="none" xmlns="http://www.w3.org/2000/svg">
<g clip-path="url(#clip0_0_1)">
<rect width="370" height="110" fill="white"/>
<g filter="url(#filter0_d_0_1)">
<path d="M100.688 57V30.8182H111.989C113.932 30.8182 115.632 31.2017 117.089 31.9688C118.547 32.7358 119.68 33.8139 120.49 35.2031C121.3 36.5923 121.705 38.2159 121.705 40.0739C121.705 41.9489 121.287 43.5724 120.452 44.9446C119.625 46.3168 118.462 47.3736 116.962 48.1151C115.47 48.8565 113.727 49.2273 111.733 49.2273H104.983V43.7045H110.301C111.136 43.7045 111.848 43.5597 112.436 43.2699C113.033 42.9716 113.489 42.5497 113.804 42.0043C114.128 41.4588 114.29 40.8153 114.29 40.0739C114.29 39.3239 114.128 38.6847 113.804 38.1562C113.489 37.6193 113.033 37.2102 112.436 36.929C111.848 36.6392 111.136 36.4943 110.301 36.4943H107.795V57H100.688ZM127.844 57H120.174L128.816 30.8182H138.532L147.174 57H139.503L133.776 38.0284H133.571L127.844 57ZM126.412 46.6705H140.833V51.9886H126.412V46.6705ZM149.695 57V30.8182H160.996C162.94 30.8182 164.64 31.1719 166.097 31.8793C167.555 32.5866 168.688 33.6051 169.498 34.9347C170.308 36.2642 170.712 37.858 170.712 39.7159C170.712 41.5909 170.295 43.1719 169.46 44.4588C168.633 45.7457 167.469 46.7173 165.969 47.3736C164.478 48.0298 162.735 48.358 160.741 48.358H153.991V42.8352H159.309C160.144 42.8352 160.856 42.733 161.444 42.5284C162.04 42.3153 162.496 41.9787 162.812 41.5185C163.136 41.0582 163.298 40.4574 163.298 39.7159C163.298 38.9659 163.136 38.3565 162.812 37.8878C162.496 37.4105 162.04 37.0611 161.444 36.8395C160.856 36.6094 160.144 36.4943 159.309 36.4943H156.803V57H149.695ZM165.036 44.983L171.582 57H163.86L157.468 44.983H165.036ZM173.742 57V30.8182H180.85V41.4034H181.208L189.083 30.8182H197.367L188.521 42.4773L197.572 57H189.083L183.202 47.1818L180.85 50.25V57H173.742ZM206.585 30.8182V57H199.477V30.8182H206.585ZM232.607 30.8182V57H226.675L217.214 43.2443H217.061V57H209.953V30.8182H215.987L225.294 44.5227H225.499V30.8182H232.607ZM250.082 39C250.014 38.1477 249.695 37.483 249.124 37.0057C248.561 36.5284 247.705 36.2898 246.554 36.2898C245.821 36.2898 245.22 36.3793 244.751 36.5582C244.291 36.7287 243.95 36.9631 243.729 37.2614C243.507 37.5597 243.392 37.9006 243.384 38.2841C243.366 38.5994 243.422 38.8849 243.55 39.1406C243.686 39.3878 243.899 39.6136 244.189 39.8182C244.479 40.0142 244.849 40.1932 245.301 40.3551C245.753 40.517 246.29 40.6619 246.912 40.7898L249.06 41.25C250.509 41.5568 251.749 41.9616 252.78 42.4645C253.811 42.9673 254.655 43.5597 255.311 44.2415C255.967 44.9148 256.449 45.6733 256.756 46.517C257.071 47.3608 257.233 48.2812 257.241 49.2784C257.233 51 256.803 52.4574 255.95 53.6506C255.098 54.8438 253.879 55.7514 252.294 56.3736C250.717 56.9957 248.821 57.3068 246.605 57.3068C244.33 57.3068 242.344 56.9702 240.648 56.2969C238.96 55.6236 237.648 54.5881 236.71 53.1903C235.781 51.7841 235.313 49.9858 235.304 47.7955H242.054C242.097 48.5966 242.297 49.2699 242.655 49.8153C243.013 50.3608 243.516 50.7741 244.163 51.0554C244.82 51.3366 245.599 51.4773 246.503 51.4773C247.261 51.4773 247.896 51.3835 248.408 51.196C248.919 51.0085 249.307 50.7486 249.571 50.4162C249.835 50.0838 249.972 49.7045 249.98 49.2784C249.972 48.8778 249.839 48.5284 249.584 48.2301C249.337 47.9233 248.928 47.6506 248.357 47.4119C247.786 47.1648 247.014 46.9347 246.043 46.7216L243.435 46.1591C241.116 45.6562 239.288 44.8168 237.95 43.6406C236.621 42.456 235.96 40.8409 235.969 38.7955C235.96 37.1335 236.403 35.6804 237.298 34.4361C238.202 33.1832 239.45 32.2074 241.044 31.5085C242.646 30.8097 244.483 30.4602 246.554 30.4602C248.668 30.4602 250.496 30.8139 252.038 31.5213C253.581 32.2287 254.77 33.2259 255.605 34.5128C256.449 35.7912 256.875 37.2869 256.884 39H250.082ZM285.309 43.9091C285.309 46.8239 284.742 49.2827 283.609 51.2855C282.475 53.2798 280.945 54.7926 279.019 55.8239C277.093 56.8466 274.945 57.358 272.576 57.358C270.19 57.358 268.033 56.8423 266.107 55.8111C264.19 54.7713 262.664 53.2543 261.531 51.2599C260.406 49.2571 259.843 46.8068 259.843 43.9091C259.843 40.9943 260.406 38.5398 261.531 36.5455C262.664 34.5426 264.19 33.0298 266.107 32.0071C268.033 30.9759 270.19 30.4602 272.576 30.4602C274.945 30.4602 277.093 30.9759 279.019 32.0071C280.945 33.0298 282.475 34.5426 283.609 36.5455C284.742 38.5398 285.309 40.9943 285.309 43.9091ZM277.996 43.9091C277.996 42.3409 277.788 41.0199 277.37 39.946C276.961 38.8636 276.352 38.0455 275.542 37.4915C274.741 36.929 273.752 36.6477 272.576 36.6477C271.4 36.6477 270.407 36.929 269.597 37.4915C268.796 38.0455 268.187 38.8636 267.769 39.946C267.36 41.0199 267.156 42.3409 267.156 43.9091C267.156 45.4773 267.36 46.8026 267.769 47.8849C268.187 48.9588 268.796 49.777 269.597 50.3395C270.407 50.8935 271.4 51.1705 272.576 51.1705C273.752 51.1705 274.741 50.8935 275.542 50.3395C276.352 49.777 276.961 48.9588 277.37 47.8849C277.788 46.8026 277.996 45.4773 277.996 43.9091ZM311.251 30.8182V57H305.319L295.859 43.2443H295.706V57H288.598V30.8182H294.632L303.939 44.5227H304.143V30.8182H311.251ZM320.545 30.8182V33.8864C320.545 34.7216 320.375 35.5568 320.034 36.392C319.701 37.2187 319.275 37.9901 318.755 38.706C318.244 39.4134 317.716 40.0057 317.17 40.483L314.255 39C314.613 38.3864 314.933 37.6747 315.214 36.8651C315.495 36.0554 315.636 35.0625 315.636 33.8864V30.8182H320.545ZM337.973 39C337.905 38.1477 337.585 37.483 337.014 37.0057C336.452 36.5284 335.595 36.2898 334.445 36.2898C333.712 36.2898 333.111 36.3793 332.642 36.5582C332.182 36.7287 331.841 36.9631 331.619 37.2614C331.398 37.5597 331.283 37.9006 331.274 38.2841C331.257 38.5994 331.313 38.8849 331.44 39.1406C331.577 39.3878 331.79 39.6136 332.08 39.8182C332.369 40.0142 332.74 40.1932 333.192 40.3551C333.643 40.517 334.18 40.6619 334.803 40.7898L336.95 41.25C338.399 41.5568 339.639 41.9616 340.67 42.4645C341.702 42.9673 342.545 43.5597 343.202 44.2415C343.858 44.9148 344.339 45.6733 344.646 46.517C344.962 47.3608 345.124 48.2812 345.132 49.2784C345.124 51 344.693 52.4574 343.841 53.6506C342.989 54.8438 341.77 55.7514 340.185 56.3736C338.608 56.9957 336.712 57.3068 334.496 57.3068C332.22 57.3068 330.234 56.9702 328.538 56.2969C326.851 55.6236 325.538 54.5881 324.601 53.1903C323.672 51.7841 323.203 49.9858 323.195 47.7955H329.945C329.987 48.5966 330.188 49.2699 330.545 49.8153C330.903 50.3608 331.406 50.7741 332.054 51.0554C332.71 51.3366 333.49 51.4773 334.393 51.4773C335.152 51.4773 335.787 51.3835 336.298 51.196C336.81 51.0085 337.197 50.7486 337.462 50.4162C337.726 50.0838 337.862 49.7045 337.871 49.2784C337.862 48.8778 337.73 48.5284 337.474 48.2301C337.227 47.9233 336.818 47.6506 336.247 47.4119C335.676 47.1648 334.905 46.9347 333.933 46.7216L331.325 46.1591C329.007 45.6562 327.179 44.8168 325.841 43.6406C324.511 42.456 323.851 40.8409 323.859 38.7955C323.851 37.1335 324.294 35.6804 325.189 34.4361C326.092 33.1832 327.341 32.2074 328.935 31.5085C330.537 30.8097 332.374 30.4602 334.445 30.4602C336.558 30.4602 338.386 30.8139 339.929 31.5213C341.472 32.2287 342.661 33.2259 343.496 34.5128C344.339 35.7912 344.766 37.2869 344.774 39H337.973Z" fill="#2B255A"/>
</g>
<g filter="url(#filter1_d_0_1)">
<path d="M100.136 66.4025V62.3457H119.25V66.4025H112.125V85.6184H107.261V66.4025H100.136ZM122.398 85.6184V62.3457H138.08V66.4025H127.318V71.948H137.273V76.0048H127.318V81.5616H138.125V85.6184H122.398ZM154.616 69.0389C154.526 68.1222 154.135 67.4101 153.446 66.9025C152.757 66.3949 151.821 66.1411 150.639 66.1411C149.836 66.1411 149.158 66.2548 148.605 66.4821C148.052 66.7018 147.628 67.0086 147.332 67.4025C147.045 67.7964 146.901 68.2434 146.901 68.7434C146.885 69.1601 146.973 69.5237 147.162 69.8343C147.359 70.1449 147.628 70.4139 147.969 70.6411C148.31 70.8608 148.704 71.054 149.151 71.2207C149.598 71.3798 150.075 71.5161 150.582 71.6298L152.673 72.1298C153.688 72.3571 154.62 72.6601 155.469 73.0389C156.317 73.4177 157.052 73.8836 157.673 74.4366C158.295 74.9896 158.776 75.6411 159.116 76.3911C159.465 77.1411 159.643 78.001 159.651 78.9707C159.643 80.3949 159.279 81.6298 158.56 82.6752C157.848 83.7131 156.817 84.5199 155.469 85.0957C154.128 85.6639 152.51 85.948 150.616 85.948C148.738 85.948 147.101 85.6601 145.707 85.0843C144.321 84.5086 143.238 83.6563 142.457 82.5275C141.685 81.3911 141.279 79.9858 141.241 78.3116H146.003C146.056 79.0919 146.279 79.7434 146.673 80.2661C147.075 80.7813 147.609 81.1714 148.276 81.4366C148.95 81.6942 149.711 81.823 150.56 81.823C151.393 81.823 152.116 81.7018 152.73 81.4593C153.351 81.2169 153.832 80.8798 154.173 80.448C154.514 80.0161 154.685 79.5199 154.685 78.9593C154.685 78.4366 154.529 77.9972 154.219 77.6411C153.916 77.2851 153.469 76.9821 152.878 76.7321C152.295 76.4821 151.579 76.2548 150.73 76.0502L148.196 75.4139C146.234 74.9366 144.685 74.1904 143.548 73.1752C142.412 72.1601 141.848 70.7927 141.855 69.073C141.848 67.6639 142.223 66.4328 142.98 65.3798C143.745 64.3268 144.795 63.5048 146.128 62.9139C147.461 62.323 148.976 62.0275 150.673 62.0275C152.401 62.0275 153.908 62.323 155.196 62.9139C156.491 63.5048 157.499 64.3268 158.219 65.3798C158.938 66.4328 159.31 67.6525 159.332 69.0389H154.616ZM162.074 66.4025V62.3457H181.188V66.4025H174.062V85.6184H169.199V66.4025H162.074ZM212.276 70.4934H207.298C207.207 69.8495 207.022 69.2775 206.741 68.7775C206.461 68.2699 206.101 67.8381 205.662 67.4821C205.223 67.126 204.715 66.8533 204.139 66.6639C203.571 66.4745 202.954 66.3798 202.287 66.3798C201.082 66.3798 200.033 66.679 199.139 67.2775C198.245 67.8684 197.552 68.7321 197.06 69.8684C196.567 70.9972 196.321 72.3684 196.321 73.9821C196.321 75.6411 196.567 77.0351 197.06 78.1639C197.56 79.2927 198.257 80.1449 199.151 80.7207C200.045 81.2964 201.079 81.5843 202.253 81.5843C202.912 81.5843 203.522 81.4972 204.082 81.323C204.651 81.1487 205.154 80.8949 205.594 80.5616C206.033 80.2207 206.397 79.8078 206.685 79.323C206.98 78.8381 207.185 78.2851 207.298 77.6639L212.276 77.6866C212.147 78.7548 211.825 79.7851 211.31 80.7775C210.802 81.7624 210.116 82.6449 209.253 83.4252C208.397 84.198 207.374 84.8116 206.185 85.2661C205.003 85.7131 203.666 85.9366 202.173 85.9366C200.098 85.9366 198.241 85.4669 196.605 84.5275C194.976 83.5881 193.688 82.2283 192.741 80.448C191.802 78.6677 191.332 76.5124 191.332 73.9821C191.332 71.4442 191.81 69.2851 192.764 67.5048C193.719 65.7245 195.014 64.3684 196.651 63.4366C198.287 62.4972 200.128 62.0275 202.173 62.0275C203.522 62.0275 204.772 62.2169 205.923 62.5957C207.082 62.9745 208.109 63.5275 209.003 64.2548C209.897 64.9745 210.624 65.8571 211.185 66.9025C211.753 67.948 212.116 69.1449 212.276 70.4934ZM215.804 85.6184V62.3457H231.486V66.4025H220.724V71.948H230.679V76.0048H220.724V81.5616H231.531V85.6184H215.804ZM254.864 62.3457V85.6184H250.614L240.489 70.9707H240.318V85.6184H235.398V62.3457H239.716L249.761 76.9821H249.966V62.3457H254.864ZM258.043 66.4025V62.3457H277.156V66.4025H270.031V85.6184H265.168V66.4025H258.043ZM280.304 85.6184V62.3457H295.986V66.4025H285.224V71.948H295.179V76.0048H285.224V81.5616H296.031V85.6184H280.304ZM299.898 85.6184V62.3457H309.08C310.837 62.3457 312.337 62.6601 313.58 63.2889C314.83 63.9101 315.78 64.7927 316.432 65.9366C317.091 67.073 317.42 68.4101 317.42 69.948C317.42 71.4934 317.087 72.823 316.42 73.9366C315.754 75.0427 314.788 75.8911 313.523 76.4821C312.265 77.073 310.742 77.3684 308.955 77.3684H302.807V73.4139H308.159C309.098 73.4139 309.879 73.2851 310.5 73.0275C311.121 72.7699 311.583 72.3836 311.886 71.8684C312.197 71.3533 312.352 70.7131 312.352 69.948C312.352 69.1752 312.197 68.5237 311.886 67.9934C311.583 67.4631 311.117 67.0616 310.489 66.7889C309.867 66.5086 309.083 66.3684 308.136 66.3684H304.818V85.6184H299.898ZM312.466 75.0275L318.25 85.6184H312.818L307.159 75.0275H312.466Z" fill="#2B255A" fill-opacity="0.8" shape-rendering="crispEdges"/>
</g>
<g filter="url(#filter2_d_0_1)">
<path fill-rule="evenodd" clip-rule="evenodd" d="M55.6792 67.1739H64.7594H66.5755V67.1169C80.7733 66.2219 92 54.91 92 41.087C92 26.6795 79.804 15 64.7594 15C49.8361 15 37.7156 26.492 37.5212 40.7391H37.5189V41.087V49.7826H15C15 58.6813 21.9789 66.019 30.9811 67.05V67.1739L33.1604 67.1739L37.5189 67.1739V75.5217V95C47.5486 95 55.6792 87.2137 55.6792 77.6087C55.6792 76.9024 55.6353 76.206 55.5498 75.5217H55.6792V67.1739Z" fill="#2B255A"/>
</g>
<path d="M58.5849 44.3478C58.5849 41.5864 60.8235 39.3478 63.5849 39.3478H64.4811C67.2426 39.3478 69.4811 41.5864 69.4811 44.3478V44.7826C69.4811 47.544 67.2426 49.7826 64.4811 49.7826H58.5849V44.3478Z" fill="white"/>
</g>
<defs>
<filter id="filter0_d_0_1" x="85.6875" y="19.4602" width="274.445" height="56.8977" filterUnits="userSpaceOnUse" color-interpolation-filters="sRGB">
<feFlood flood-opacity="0" result="BackgroundImageFix"/>
<feColorMatrix in="SourceAlpha" type="matrix" values="0 0 0 0 0 0 0 0 0 0 0 0 0 0 0 0 0 0 127 0" result="hardAlpha"/>
<feOffset dy="4"/>
<feGaussianBlur stdDeviation="7.5"/>
<feComposite in2="hardAlpha" operator="out"/>
<feColorMatrix type="matrix" values="0 0 0 0 0 0 0 0 0 0 0 0 0 0 0 0 0 0 0.25 0"/>
<feBlend mode="normal" in2="BackgroundImageFix" result="effect1_dropShadow_0_1"/>
<feBlend mode="normal" in="SourceGraphic" in2="effect1_dropShadow_0_1" result="shape"/>
</filter>
<filter id="filter1_d_0_1" x="85.1364" y="51.0275" width="248.114" height="53.9205" filterUnits="userSpaceOnUse" color-interpolation-filters="sRGB">
<feFlood flood-opacity="0" result="BackgroundImageFix"/>
<feColorMatrix in="SourceAlpha" type="matrix" values="0 0 0 0 0 0 0 0 0 0 0 0 0 0 0 0 0 0 127 0" result="hardAlpha"/>
<feOffset dy="4"/>
<feGaussianBlur stdDeviation="7.5"/>
<feComposite in2="hardAlpha" operator="out"/>
<feColorMatrix type="matrix" values="0 0 0 0 0 0 0 0 0 0 0 0 0 0 0 0 0 0 0.25 0"/>
<feBlend mode="normal" in2="BackgroundImageFix" result="effect1_dropShadow_0_1"/>
<feBlend mode="normal" in="SourceGraphic" in2="effect1_dropShadow_0_1" result="shape"/>
</filter>
<filter id="filter2_d_0_1" x="0" y="4" width="107" height="110" filterUnits="userSpaceOnUse" color-interpolation-filters="sRGB">
<feFlood flood-opacity="0" result="BackgroundImageFix"/>
<feColorMatrix in="SourceAlpha" type="matrix" values="0 0 0 0 0 0 0 0 0 0 0 0 0 0 0 0 0 0 127 0" result="hardAlpha"/>
<feOffset dy="4"/>
<feGaussianBlur stdDeviation="7.5"/>
<feComposite in2="hardAlpha" operator="out"/>
<feColorMatrix type="matrix" values="0 0 0 0 0 0 0 0 0 0 0 0 0 0 0 0 0 0 0.25 0"/>
<feBlend mode="normal" in2="BackgroundImageFix" result="effect1_dropShadow_0_1"/>
<feBlend mode="normal" in="SourceGraphic" in2="effect1_dropShadow_0_1" result="shape"/>
</filter>
<clipPath id="clip0_0_1">
<rect width="370" height="110" fill="white"/>
</clipPath>
</defs>
</svg>
